<svg width="90" height="90" viewBox="0 0 90 90" fill="none" xmlns="http://www.w3.org/2000/svg">
<g clip-path="url(#clip0_90_130)">
<path d="M22.5 90H30.4875C32.1658 89.9841 33.7912 89.4112 35.1086 88.3714C36.4261 87.3316 37.3609 85.8837 37.7663 84.255C38.2004 82.6694 39.1435 81.2703 40.4505 80.273C41.7575 79.2758 43.356 78.7356 45 78.7356C46.644 78.7356 48.2425 79.2758 49.5495 80.273C50.8565 81.2703 51.7996 82.6694 52.2337 84.255C52.6391 85.8837 53.5739 87.3316 54.8914 88.3714C56.2088 89.4112 57.8342 89.9841 59.5125 90H67.5C70.4837 90 73.3452 88.8147 75.455 86.705C77.5647 84.5952 78.75 81.7337 78.75 78.75V63.75H63.75C62.7554 63.75 61.8016 63.3549 61.0983 62.6517C60.3951 61.9484 60 60.9946 60 60C60 59.0054 60.3951 58.0516 61.0983 57.3484C61.8016 56.6451 62.7554 56.25 63.75 56.25H78.75V18.75C78.744 13.779 76.7667 9.01334 73.2517 5.49832C69.7367 1.98331 64.971 0.00595447 60 0L59.5125 0C57.8342 0.0159443 56.2088 0.5888 54.8914 1.62862C53.5739 2.66845 52.6391 4.11635 52.2337 5.745C51.7996 7.33064 50.8565 8.72971 49.5495 9.72696C48.2425 10.7242 46.644 11.2644 45 11.2644C43.356 11.2644 41.7575 10.7242 40.4505 9.72696C39.1435 8.72971 38.2004 7.33064 37.7663 5.745C37.3609 4.11635 36.4261 2.66845 35.1086 1.62862C33.7912 0.5888 32.1658 0.0159443 30.4875 0L30 0C25.029 0.00595447 20.2633 1.98331 16.7483 5.49832C13.2333 9.01334 11.256 13.779 11.25 18.75V56.25H26.25C27.2446 56.25 28.1984 56.6451 28.9016 57.3484C29.6049 58.0516 30 59.0054 30 60C30 60.9946 29.6049 61.9484 28.9016 62.6517C28.1984 63.3549 27.2446 63.75 26.25 63.75H11.25V78.75C11.25 81.7337 12.4353 84.5952 14.545 86.705C16.6548 88.8147 19.5163 90 22.5 90ZM41.25 56.25H48.75C49.7446 56.25 50.6984 56.6451 51.4016 57.3484C52.1049 58.0516 52.5 59.0054 52.5 60C52.5 60.9946 52.1049 61.9484 51.4016 62.6517C50.6984 63.3549 49.7446 63.75 48.75 63.75H41.25C40.2554 63.75 39.3016 63.3549 38.5984 62.6517C37.8951 61.9484 37.5 60.9946 37.5 60C37.5 59.0054 37.8951 58.0516 38.5984 57.3484C39.3016 56.6451 40.2554 56.25 41.25 56.25Z" fill="white"/>
</g>
<defs>
<clipPath id="clip0_90_130">
<rect width="90" height="90" fill="white"/>
</clipPath>
</defs>
</svg>
