<svg width="14" height="21" viewBox="0 0 14 21" fill="none" xmlns="http://www.w3.org/2000/svg">
<path d="M11.0352 0.960938C11.4258 1.45573 12.194 2.44531 13.3398 3.92969C13.3398 3.95573 11.5169 5.38802 7.87109 8.22656C7.11589 8.82552 5.97005 9.72396 4.43359 10.9219C5.05859 11.4167 6.32161 12.4193 8.22266 13.9297C9.08203 14.5807 10.7878 15.9089 13.3398 17.9141C12.9753 18.4089 12.207 19.3984 11.0352 20.8828C9.91536 20.0234 7.70182 18.2917 4.39453 15.6875C1.60807 13.5521 0.188802 12.4583 0.136719 12.4062C0.136719 11.7552 0.136719 10.7656 0.136719 9.4375C1.07422 8.70833 2.94922 7.25 5.76172 5.0625C6.64714 4.38542 8.40495 3.01823 11.0352 0.960938Z" fill="white"/>
</svg>
