<svg width="90" height="90" viewBox="0 0 90 90" fill="none" xmlns="http://www.w3.org/2000/svg">
<path d="M64.9125 56.25C79.3312 56.25 86.5125 71.3587 89.6888 81.3562C91.0537 85.6575 87.735 90 83.1338 90H67.1438C58.2188 90 48.75 82.4437 48.75 73.125C48.75 63.8063 55.9875 56.25 64.9125 56.25ZM4.395 71.6963C1.5825 74.5088 1.11759e-07 78.3263 1.11759e-07 82.3013V90H7.69875C11.6775 90 15.4913 88.4212 18.3038 85.605L68.6663 35.2425L54.7537 21.33L4.395 71.6963ZM87.12 2.88C83.28 -0.96 77.0512 -0.96 73.2075 2.88L60.0562 16.0312L73.9688 29.9438L87.12 16.7925C90.96 12.9525 90.96 6.72375 87.12 2.88ZM2.88 16.7925C-0.96 12.9525 -0.96 6.72375 2.88 2.88C6.72375 -0.96 12.9525 -0.96 16.7925 2.88L38.9137 26.5688L25.0012 40.4813L2.88 16.7925Z" fill="white"/>
</svg>
